<?xml version="1.0" encoding="UTF-8" standalone="no"?>
<!DOCTYPE svg PUBLIC "-//W3C//DTD SVG 1.1//EN" "http://www.w3.org/Graphics/SVG/1.1/DTD/svg11.dtd">
<!-- Created with Vectornator (http://vectornator.io/) -->
<svg height="100%" stroke-miterlimit="10" style="fill-rule:nonzero;clip-rule:evenodd;stroke-linecap:round;stroke-linejoin:round;" version="1.1" viewBox="0 0 48 48" width="100%" xml:space="preserve" xmlns="http://www.w3.org/2000/svg" xmlns:vectornator="http://vectornator.io" xmlns:xlink="http://www.w3.org/1999/xlink">
<defs/>
<clipPath id="ArtboardFrame">
<rect height="48" width="48" x="0" y="0"/>
</clipPath>
<g clip-path="url(#ArtboardFrame)" id="Layer-1" vectornator:layerName="Layer 1">
<path d="M18.0719 22.0432C18.0719 22.8687 15.6555 23.9121 15.2806 24.6619C15.2531 24.7168 15.376 24.5845 15.4245 24.5468C15.5486 24.4502 15.6654 24.3427 15.7986 24.259C16.0021 24.1311 16.2255 24.0373 16.4317 23.9137C16.9199 23.6207 17.3771 23.2771 17.8705 22.9928C18.9393 22.3769 20.0338 21.8146 21.1511 21.295C21.2933 21.2288 21.9933 20.7501 22.2158 20.8058C22.2542 20.8153 22.2588 20.8839 22.2446 20.9209C22.0067 21.5394 21.0728 22.1308 20.6043 22.5324C19.3001 23.6503 17.8801 24.6235 16.6619 25.8417C16.2944 26.2092 15.7847 26.8035 15.8849 26.8201C16.7389 26.9625 18.1076 25.7812 18.7338 25.4101C21.1323 23.9887 23.6615 22.6259 26.2734 21.6403C26.7531 21.4593 27.249 21.3242 27.741 21.1799C28.1487 21.0602 29.6321 20.4537 30.1295 20.8633C30.5974 21.2487 28.9724 22.5853 28.8058 22.7338C27.125 24.2312 25.2427 25.4996 23.5108 26.9353C23.1551 27.2301 22.8201 27.5492 22.4748 27.8561C22.2158 28.0863 21.9489 28.3079 21.6978 28.5468C21.5252 28.711 21.0162 29.005 21.2374 29.0935C21.4645 29.1844 23.3391 27.9283 23.5108 27.8273C23.8513 27.627 24.2027 27.4459 24.5468 27.2518C26.5679 26.1116 30.3351 23.8984 32.7194 24.1151C33.8001 24.2134 32.6736 25.5043 32.4317 25.8129C31.6468 26.8143 30.5765 27.495 29.6978 28.4029C29.5278 28.5786 29.2086 28.7051 29.2086 28.9496C29.2086 29.1972 29.6289 28.6836 29.8129 28.518C30.0356 28.3176 30.6065 27.589 30.964 27.8273" fill="none" opacity="1" stroke="#abcadf" stroke-linecap="round" stroke-linejoin="round" stroke-width="10" vectornator:layerName="Curve 1"/>
<path d="M6.21562 8.84785C5.93557 8.70783 6.65536 10.0229 6.68064 10.0788C7.00167 10.7884 7.272 11.5125 7.61068 12.2124C7.757 12.5148 7.8887 12.8186 8.04834 13.1151C8.10839 13.2266 8.19976 13.5635 8.23982 13.4433C8.29038 13.2916 6.85113 10.4341 6.73535 9.99672C6.72792 9.96867 6.48734 8.78731 6.65329 8.8205C6.74963 8.83977 8.07474 11.4993 8.21246 11.7747C8.32339 11.9966 8.47124 12.191 8.59542 12.4039C8.65723 12.5098 8.81755 12.7977 8.8416 12.6774C8.90067 12.3821 7.77539 10.0322 7.63803 9.55906C7.62956 9.52988 7.33044 8.45809 7.50126 8.49225C7.60816 8.51363 9.01218 11.3931 9.16985 11.6927C9.19477 11.74 9.49973 12.3765 9.55281 12.3765C9.55397 12.3765 9.06925 11.4816 9.03308 11.4191C8.66098 10.7764 8.30021 10.1559 7.99363 9.477C7.83771 9.13174 7.71417 8.79976 7.61068 8.43755C7.60507 8.41794 7.5689 8.36842 7.58332 8.38284C8.1845 8.98401 8.46052 10.4612 8.81425 11.2277C8.97345 11.5726 9.12964 11.918 9.27927 12.2671C9.34731 12.4259 9.37671 12.5765 9.44339 12.7321C9.45475 12.7586 9.49113 12.8346 9.47074 12.8142C8.97617 12.3196 8.20471 10.4547 7.88421 9.8326C7.87686 9.81832 7.2032 8.67995 7.20037 8.68373C7.00338 8.94637 7.31982 9.73562 7.39184 9.99672C7.4648 10.2612 9.39619 14.2714 8.1304 13.0057C7.94948 12.8247 7.83374 12.6312 7.72009 12.4039" fill="none" opacity="1" stroke="#abcadf" stroke-linecap="round" stroke-linejoin="round" stroke-width="3" vectornator:layerName="Curve 2"/>
<path d="M5.88737 7.31603C3.86703 7.31603 4.55633 4.18679 6.59858 4.79947C6.79363 4.85798 7.02275 4.99132 7.1183 5.18242C8.56207 8.06995 3.43311 7.45008 4.73851 5.10036C5.7918 3.20444 8.30124 5.32693 6.70799 7.0972C5.57675 8.35413 3.30437 6.07489 4.65645 4.82682C6.45996 3.16204 8.55903 6.67825 6.70799 7.39809C4.0376 8.43658 3.79101 3.95704 5.86002 4.44387C7.57496 4.84738 7.67973 8.15359 5.61384 7.83576C3.52365 7.51419 4.56464 4.01794 6.10621 5.04565" fill="none" opacity="1" stroke="#abcadf" stroke-linecap="round" stroke-linejoin="round" stroke-width="3" vectornator:layerName="Curve 3"/>
<path d="M6.67898 18.7087C5.77818 17.5745 5.2176 20.1057 5.16098 20.7474C4.87114 24.0318 4.9087 27.8567 5.33808 31.1004C5.49138 32.2585 6.3379 32.6771 7.15968 32.4702C7.34085 32.4245 7.89338 32.4668 7.89338 32.1197" fill="none" opacity="1" stroke="#87b8d8" stroke-linecap="round" stroke-linejoin="round" stroke-width="3" vectornator:layerName="Curve 4"/>
<path d="M41.2792 18.6588C41.2636 18.6454 41.9294 19.3299 42.0692 19.6608C42.3748 20.3843 42.3333 21.3992 42.373 22.1779C42.4415 23.521 42.1692 24.8616 42.2128 26.2007C42.2605 27.6684 42.3652 29.185 42.1771 30.6423C42.0549 31.589 41.476 31.8514 40.7489 32.3457C40.6584 32.4073 40.4121 32.6024 40.3617 32.4831" fill="none" opacity="1" stroke="#87b8d8" stroke-linecap="round" stroke-linejoin="round" stroke-width="3" vectornator:layerName="Curve 5"/>
<path d="M10.7338 15.5396L36.4604 15.5396L36.4604 33.8129L10.7338 33.8129L10.7338 15.5396Z" fill="#b5d8ff" fill-rule="nonzero" opacity="1" stroke="#abcadf" stroke-linecap="butt" stroke-linejoin="round" stroke-width="10" vectornator:layerName="Rectangle 1"/>
<path d="M38.2078 10.1978C38.5506 9.51218 38.8509 8.75467 39.3579 8.17524C39.4014 8.1255 39.487 7.99715 39.5165 8.05627C39.5889 8.20097 39.0302 8.8932 38.9613 9.00807C38.4689 9.8287 37.3979 11.0746 37.2163 11.9824C37.1722 12.2032 37.503 11.6351 37.6526 11.4669C37.8523 11.2422 38.0173 11.0169 38.1681 10.753C38.6041 9.99014 39.0915 9.3005 39.6355 8.61148C39.879 8.30299 40.4286 7.739 40.4286 7.739C40.4286 7.739 39.77 8.34563 39.5562 8.73046C39.0946 9.56134 38.7023 10.4347 38.2474 11.2686C38.1211 11.5003 37.9638 11.7258 37.8905 11.9824C37.8456 12.1397 37.6559 12.574 37.7715 12.4583C38.5389 11.691 38.8977 10.1278 39.5958 9.24601C39.8329 8.94661 40.0358 8.63504 40.27 8.33388C40.3733 8.20106 40.6801 7.81733 40.6269 7.97695C40.2435 9.12727 39.2703 10.5048 38.5647 11.4669C38.3386 11.7753 38.1409 12.1162 37.9698 12.4583C37.9691 12.4598 37.7456 12.8426 37.7319 12.8153C37.6513 12.6541 38.1364 11.8222 38.2078 11.6652C38.7035 10.5745 39.2733 9.51297 39.7545 8.41319C39.7651 8.38885 40.1773 7.5142 40.0717 7.4614C39.9004 7.37572 38.9098 9.04174 38.882 9.08738C38.519 9.68371 38.0817 10.2806 37.6526 10.8323C37.4402 11.1054 36.9387 11.5858 36.9387 11.5858C36.9387 11.5858 37.018 11.4801 37.0577 11.4272C37.406 10.9628 37.6299 10.4017 37.9698 9.9202C38.5624 9.08079 39.3867 8.19688 39.8338 7.30276" fill="none" opacity="1" stroke="#abcadf" stroke-linecap="round" stroke-linejoin="round" stroke-width="3" vectornator:layerName="Curve 6"/>
<path d="M41.1822 5.51814C41.1822 5.05608 41.8948 3.96963 42.3719 4.68532C42.9 5.47742 42.2577 6.85876 41.2218 6.62857C39.6043 6.26911 40.6096 3.58271 42.0546 3.69386C43.146 3.77781 44.0694 6.2154 42.8875 6.70789C39.7054 8.03373 39.0395 3.51981 41.9753 3.97147C44.2564 4.32241 43.2753 7.70172 41.1822 7.54071C39.4217 7.40529 40.1426 3.83163 41.6581 3.69386C43.0225 3.56982 43.8044 7.18185 42.2133 7.81832C40.4429 8.52646 38.8017 5.07437 40.6666 4.3284C42.8196 3.46721 44.699 7.47675 41.9357 7.93729C39.377 8.36374 39.4927 3.56582 41.4994 3.8525C44.1331 4.22874 43.4128 8.74116 41.1028 7.77866C38.1964 6.56765 40.7285 2.36771 42.7685 4.40771" fill="none" opacity="1" stroke="#abcadf" stroke-linecap="round" stroke-linejoin="round" stroke-width="3" vectornator:layerName="Curve 7"/>
<path d="M5.5809 6.38156C4.74607 6.54643 5.14307 4.88008 6.04357 5.12801C7.40689 5.50337 6.48166 7.60608 5.39134 7.71031C3.73994 7.86818 3.70792 5.07273 5.13754 4.79041C6.25371 4.56998 7.86156 6.3595 6.765 7.30991C5.18811 8.67663 3.24687 6.20562 4.58479 4.77044C6.01675 3.23437 8.17679 6.16602 6.91344 7.57114C5.33891 9.32236 2.83971 6.48845 4.45398 4.9254C6.5359 2.90954 9.13656 5.87773 7.22951 7.86383C5.90948 9.23857 4.31766 7.58064 3.94757 6.28444C3.82852 5.86745 4.08893 4.90064 4.55985 4.80764" fill="none" opacity="1" stroke="#abcadf" stroke-linecap="round" stroke-linejoin="round" stroke-width="3" vectornator:layerName="Curve 8"/>
<path d="M11.5405 15.9782L37.2671 15.9782L37.2671 33.3743L11.5405 33.3743L11.5405 15.9782Z" fill="#ebecf0" fill-rule="nonzero" opacity="1" stroke="#ebecf0" stroke-linecap="round" stroke-linejoin="round" stroke-width="3" vectornator:layerName="Rectangle 2"/>
<path d="M12.5294 24.6763C12.5294 22.8297 13.9954 21.3327 15.8038 21.3327C17.6122 21.3327 19.0782 22.8297 19.0782 24.6763C19.0782 26.5229 17.6122 28.0198 15.8038 28.0198C13.9954 28.0198 12.5294 26.5229 12.5294 24.6763Z" fill="#ebecf0" fill-rule="nonzero" opacity="1" stroke="#87b8d8" stroke-linecap="round" stroke-linejoin="round" stroke-width="1" vectornator:layerName="Oval 1"/>
<path d="M22.6346 51.1035C22.6346 50.8366 24.0344 50.6203 25.7611 50.6203C27.4879 50.6203 28.8877 50.8366 28.8877 51.1035C28.8877 51.3704 27.4879 51.5867 25.7611 51.5867C24.0344 51.5867 22.6346 51.3704 22.6346 51.1035Z" fill="#ebecf0" fill-rule="nonzero" opacity="1" stroke="#87b8d8" stroke-linecap="round" stroke-linejoin="round" stroke-width="1" vectornator:layerName="Oval 3"/>
<path d="M28.8877 24.8034C28.8877 22.9339 30.3874 21.4185 32.2373 21.4185C34.0872 21.4185 35.5868 22.8843 35.5868 24.849C35.5868 25.9898 35.0284 26.9817 34.1728 27.5817C33.6262 27.965 32.9584 28.1883 32.2373 28.1883C30.3874 28.1883 28.8877 26.6728 28.8877 24.8034Z" fill="#ebecf0" fill-rule="nonzero" opacity="1" stroke="#87b8d8" stroke-linecap="round" stroke-linejoin="round" stroke-width="1" vectornator:layerName="Oval 4"/>
<path d="M35.5863 20.0423C35.6185 20.0652 34.123 19.6558 33.8335 19.5623C32.9671 19.2825 32.0256 19.0444 31.1699 18.7603" fill="none" opacity="1" stroke="#87b8d8" stroke-linecap="round" stroke-linejoin="round" stroke-width="1" vectornator:layerName="Curve 10"/>
<path d="M12.5294 20.0433C13.9425 19.6907 15.2367 19.1272 16.7072 18.7603" fill="none" opacity="1" stroke="#87b8d8" stroke-linecap="round" stroke-linejoin="round" stroke-width="1" vectornator:layerName="Curve 11"/>
<path d="M12.3912 29.0871C12.3152 28.9284 13.5757 28.7801 13.645 28.9249C13.799 29.2466 11.9381 29.4918 12.1266 29.145C12.2719 28.8775 13.8693 28.8988 13.8606 29.2394C13.8516 29.5855 12.1063 29.6798 12.0467 29.1817C11.995 28.7494 13.7866 28.8796 13.7574 29.1596C13.6701 29.9948 11.7167 29.082 12.5384 28.9877C12.7144 28.9675 12.8883 28.9964 13.0643 29.0007" fill="none" opacity="1" stroke="#5a94bc" stroke-linecap="round" stroke-linejoin="round" stroke-width="3" vectornator:layerName="Curve 13"/>
<path d="M35.7512 28.6199C35.6171 28.4996 36.0211 28.6582 36.1379 28.768C36.4648 29.075 35.0732 29.2627 34.9574 28.8543C34.7926 28.2732 36.2768 28.6323 36.0695 28.9427C35.9813 29.0747 35.0893 28.9918 35.1051 28.8497C35.1855 28.126 36.7673 28.6872 36.6844 28.8988C36.5989 29.1168 35.6674 28.9924 35.5946 28.7357C35.5402 28.5439 36.6163 28.4796 36.5351 28.8542C36.4743 29.1343 35.431 29.0722 35.4707 28.7149C35.508 28.379 36.558 28.5845 36.6336 28.8511C36.7114 29.1254 35.4982 28.9884 35.3722 28.718C35.1731 28.2909 36.8561 28.4827 36.632 28.8018C36.416 29.1095 35.3117 28.7117 35.3691 28.6195C35.5214 28.3747 36.727 28.4691 36.6798 28.751C36.6155 29.1343 35.2551 28.8919 35.2991 28.745C35.3958 28.4213 36.3122 28.5649 36.4112 28.8334C36.5587 29.2336 35.3836 28.9678 35.2529 28.845C34.8821 28.4968 35.9647 28.8115 35.7512 28.6199Z" fill="none" opacity="1" stroke="#5a94bc" stroke-linecap="round" stroke-linejoin="round" stroke-width="3" vectornator:layerName="Curve 14"/>
<path d="M35.6588 28.7293C35.6558 28.5913 36.2673 28.7594 36.1599 28.9024C36.0092 29.1031 35.2612 28.8882 35.3952 28.6965C35.6208 28.3738 36.5563 28.5531 36.224 29.0471C36.0083 29.3678 35.324 28.9649 35.3664 28.6367C35.4047 28.34 36.3889 28.3854 36.5237 28.5939C36.7888 29.0042 36.0924 29.1188 35.8455 29.0371C35.7155 28.9941 35.6597 28.7719 35.6588 28.7293Z" fill="none" opacity="1" stroke="#5a94bc" stroke-linecap="round" stroke-linejoin="round" stroke-width="1" vectornator:layerName="Curve 16"/>
<path d="M36.0159 29.1523C36.1124 29.0078 36.9909 29.2192 36.8243 29.5014C36.5942 29.8911 35.8875 29.6023 35.8382 29.2182C35.8042 28.9534 36.3905 28.7819 36.5305 28.9862C37.0032 29.6761 35.8088 30.1829 35.5144 29.3687C35.3156 28.819 36.8551 28.2067 36.9371 28.9487C36.9979 29.4982 35.325 30.1867 36.0159 29.1523Z" fill="none" opacity="1" stroke="#5a94bc" stroke-linecap="round" stroke-linejoin="round" stroke-width="1" vectornator:layerName="Curve 17"/>
<path d="M35.8324 29.0936C35.1979 28.7076 36.9538 28.046 36.7419 28.8721C36.4719 29.9249 34.6789 29.4359 35.1128 28.5041C35.4186 27.8475 37.0104 27.819 36.9894 28.5834C36.9655 29.4568 34.7359 29.7247 34.8341 28.5422C34.9006 27.7405 36.9942 27.4077 36.9859 28.773C36.9776 30.1413 34.7626 29.7342 34.6493 28.5177C34.5437 27.3842 37.0934 28.1274 36.6031 28.9953C36.3639 29.4186 35.787 29.185 35.7855 28.7376C35.7851 28.6222 35.8897 28.5295 35.9813 28.4813C36.4547 28.2325 36.4848 29.0686 36.1089 29.0462C35.7805 29.0266 35.9273 28.2926 36.2649 28.4222C36.7005 28.5895 36.0668 29.5512 35.6513 29.247C34.9305 28.7192 35.9049 27.6796 36.6082 28.1598C37.3282 28.6514 36.0372 29.856 35.4124 29.6528C34.2444 29.273 34.7363 27.4593 35.9776 27.936C37.4491 28.5011 36.2561 30.154 35.2322 29.647C34.5038 29.2863 35.6358 28.6064 35.9603 28.4765" fill="none" opacity="1" stroke="#5a94bc" stroke-linecap="round" stroke-linejoin="round" stroke-width="1" vectornator:layerName="Curve 18"/>
<path d="M22.9469 30.5406C22.9469 29.7388 23.5992 29.0889 24.4038 29.0889C25.2083 29.0889 25.8606 29.7388 25.8606 30.5406C25.8606 31.3424 25.2083 31.9924 24.4038 31.9924C23.5992 31.9924 22.9469 31.3424 22.9469 30.5406Z" fill="#ebecf0" fill-rule="nonzero" opacity="1" stroke="#87b8d8" stroke-linecap="butt" stroke-linejoin="round" stroke-width="1" vectornator:layerName="Oval 5"/>
<path d="M24.218 30.3805C24.3717 30.1499 23.8806 31.028 23.6973 30.9821C23.5364 30.9419 23.8804 30.7046 23.9866 30.5772C24.0135 30.5449 24.4656 29.9663 24.5073 29.9871C24.6185 30.0427 24.3993 30.2135 24.3221 30.311C24.2718 30.3746 23.6661 30.9581 23.6395 30.878C23.5535 30.6201 24.0022 29.6758 24.2874 30.0681C24.4464 30.2867 24.1086 30.6575 23.9866 30.8202C23.975 30.8356 23.9539 30.8685 23.9403 30.8549C23.9073 30.8219 24.0491 30.6882 24.056 30.6813C24.2259 30.5114 24.839 30.0917 25.0395 30.4036C25.2865 30.7878 24.5153 31.4258 24.1486 31.2714C23.5029 30.9995 24.1104 30.0399 24.6808 30.1143C25.3507 30.2017 24.89 31.1254 24.5073 31.283C23.8105 31.5699 23.5854 30.4685 24.0791 30.1028C25.0918 29.3527 25.6625 30.9289 24.785 31.2946C24.1695 31.551 22.5734 30.1028 24.3568 30.1028" fill="none" opacity="1" stroke="#87b8d8" stroke-linecap="round" stroke-linejoin="round" stroke-width="1" vectornator:layerName="Curve 20"/>
</g>
<g id="Layer-1-copy" vectornator:layerName="Layer 1 copy" visibility="hidden">
<path d="M10.7338 15.5396L36.4604 15.5396L36.4604 33.8129L10.7338 33.8129L10.7338 15.5396Z" fill="#b5d8ff" fill-rule="nonzero" opacity="1" stroke="#abcadf" stroke-linecap="butt" stroke-linejoin="round" stroke-width="10" vectornator:layerName="Rectangle 1"/>
<path d="M18.0719 22.0432C18.0719 22.8687 15.6555 23.9121 15.2806 24.6619C15.2531 24.7168 15.376 24.5845 15.4245 24.5468C15.5486 24.4502 15.6654 24.3427 15.7986 24.259C16.0021 24.1311 16.2255 24.0373 16.4317 23.9137C16.9199 23.6207 17.3771 23.2771 17.8705 22.9928C18.9393 22.3769 20.0338 21.8146 21.1511 21.295C21.2933 21.2288 21.9933 20.7501 22.2158 20.8058C22.2542 20.8153 22.2588 20.8839 22.2446 20.9209C22.0067 21.5394 21.0728 22.1308 20.6043 22.5324C19.3001 23.6503 17.8801 24.6235 16.6619 25.8417C16.2944 26.2092 15.7847 26.8035 15.8849 26.8201C16.7389 26.9625 18.1076 25.7812 18.7338 25.4101C21.1323 23.9887 23.6615 22.6259 26.2734 21.6403C26.7531 21.4593 27.249 21.3242 27.741 21.1799C28.1487 21.0602 29.6321 20.4537 30.1295 20.8633C30.5974 21.2487 28.9724 22.5853 28.8058 22.7338C27.125 24.2312 25.2427 25.4996 23.5108 26.9353C23.1551 27.2301 22.8201 27.5492 22.4748 27.8561C22.2158 28.0863 21.9489 28.3079 21.6978 28.5468C21.5252 28.711 21.0162 29.005 21.2374 29.0935C21.4645 29.1844 23.3391 27.9283 23.5108 27.8273C23.8513 27.627 24.2027 27.4459 24.5468 27.2518C26.5679 26.1116 30.3351 23.8984 32.7194 24.1151C33.8001 24.2134 32.6736 25.5043 32.4317 25.8129C31.6468 26.8143 30.5765 27.495 29.6978 28.4029C29.5278 28.5786 29.2086 28.7051 29.2086 28.9496C29.2086 29.1972 29.6289 28.6836 29.8129 28.518C30.0356 28.3176 30.6065 27.589 30.964 27.8273" fill="none" opacity="1" stroke="#abcadf" stroke-linecap="round" stroke-linejoin="round" stroke-width="10" vectornator:layerName="Curve 1"/>
<path d="M6.21562 8.84785C5.93557 8.70783 6.65536 10.0229 6.68064 10.0788C7.00167 10.7884 7.272 11.5125 7.61068 12.2124C7.757 12.5148 7.8887 12.8186 8.04834 13.1151C8.10839 13.2266 8.19976 13.5635 8.23982 13.4433C8.29038 13.2916 6.85113 10.4341 6.73535 9.99672C6.72792 9.96867 6.48734 8.78731 6.65329 8.8205C6.74963 8.83977 8.07474 11.4993 8.21246 11.7747C8.32339 11.9966 8.47124 12.191 8.59542 12.4039C8.65723 12.5098 8.81755 12.7977 8.8416 12.6774C8.90067 12.3821 7.77539 10.0322 7.63803 9.55906C7.62956 9.52988 7.33044 8.45809 7.50126 8.49225C7.60816 8.51363 9.01218 11.3931 9.16985 11.6927C9.19477 11.74 9.49973 12.3765 9.55281 12.3765C9.55397 12.3765 9.06925 11.4816 9.03308 11.4191C8.66098 10.7764 8.30021 10.1559 7.99363 9.477C7.83771 9.13174 7.71417 8.79976 7.61068 8.43755C7.60507 8.41794 7.5689 8.36842 7.58332 8.38284C8.1845 8.98401 8.46052 10.4612 8.81425 11.2277C8.97345 11.5726 9.12964 11.918 9.27927 12.2671C9.34731 12.4259 9.37671 12.5765 9.44339 12.7321C9.45475 12.7586 9.49113 12.8346 9.47074 12.8142C8.97617 12.3196 8.20471 10.4547 7.88421 9.8326C7.87686 9.81832 7.2032 8.67995 7.20037 8.68373C7.00338 8.94637 7.31982 9.73562 7.39184 9.99672C7.4648 10.2612 9.39619 14.2714 8.1304 13.0057C7.94948 12.8247 7.83374 12.6312 7.72009 12.4039" fill="none" opacity="1" stroke="#abcadf" stroke-linecap="round" stroke-linejoin="round" stroke-width="3" vectornator:layerName="Curve 2"/>
<path d="M5.88737 7.31603C3.86703 7.31603 4.55633 4.18679 6.59858 4.79947C6.79363 4.85798 7.02275 4.99132 7.1183 5.18242C8.56207 8.06995 3.43311 7.45008 4.73851 5.10036C5.7918 3.20444 8.30124 5.32693 6.70799 7.0972C5.57675 8.35413 3.30437 6.07489 4.65645 4.82682C6.45996 3.16204 8.55903 6.67825 6.70799 7.39809C4.0376 8.43658 3.79101 3.95704 5.86002 4.44387C7.57496 4.84738 7.67973 8.15359 5.61384 7.83576C3.52365 7.51419 4.56464 4.01794 6.10621 5.04565" fill="none" opacity="1" stroke="#abcadf" stroke-linecap="round" stroke-linejoin="round" stroke-width="3" vectornator:layerName="Curve 3"/>
<path d="M6.81741 18.6679C5.84348 17.694 5.2374 19.8676 5.17617 20.4186C4.86281 23.2389 4.90342 26.5232 5.36765 29.3086C5.5334 30.3031 6.44864 30.6625 7.33714 30.4848C7.53301 30.4457 8.1304 30.482 8.1304 30.184" fill="none" opacity="1" stroke="#abcadf" stroke-linecap="round" stroke-linejoin="round" stroke-width="3" vectornator:layerName="Curve 4"/>
<path d="M41.2792 18.6588C41.2636 18.6454 41.9294 19.3299 42.0692 19.6608C42.3748 20.3843 42.3333 21.3992 42.373 22.1779C42.4415 23.521 42.1692 24.8616 42.2128 26.2007C42.2605 27.6684 42.3652 29.185 42.1771 30.6423C42.0549 31.589 41.476 31.8514 40.7489 32.3457C40.6584 32.4073 40.4121 32.6024 40.3617 32.4831" fill="none" opacity="1" stroke="#abcadf" stroke-linecap="round" stroke-linejoin="round" stroke-width="3" vectornator:layerName="Curve 5"/>
<path d="M38.2078 10.1978C38.5506 9.51218 38.8509 8.75467 39.3579 8.17524C39.4014 8.1255 39.487 7.99715 39.5165 8.05627C39.5889 8.20097 39.0302 8.8932 38.9613 9.00807C38.4689 9.8287 37.3979 11.0746 37.2163 11.9824C37.1722 12.2032 37.503 11.6351 37.6526 11.4669C37.8523 11.2422 38.0173 11.0169 38.1681 10.753C38.6041 9.99014 39.0915 9.3005 39.6355 8.61148C39.879 8.30299 40.4286 7.739 40.4286 7.739C40.4286 7.739 39.77 8.34563 39.5562 8.73046C39.0946 9.56134 38.7023 10.4347 38.2474 11.2686C38.1211 11.5003 37.9638 11.7258 37.8905 11.9824C37.8456 12.1397 37.6559 12.574 37.7715 12.4583C38.5389 11.691 38.8977 10.1278 39.5958 9.24601C39.8329 8.94661 40.0358 8.63504 40.27 8.33388C40.3733 8.20106 40.6801 7.81733 40.6269 7.97695C40.2435 9.12727 39.2703 10.5048 38.5647 11.4669C38.3386 11.7753 38.1409 12.1162 37.9698 12.4583C37.9691 12.4598 37.7456 12.8426 37.7319 12.8153C37.6513 12.6541 38.1364 11.8222 38.2078 11.6652C38.7035 10.5745 39.2733 9.51297 39.7545 8.41319C39.7651 8.38885 40.1773 7.5142 40.0717 7.4614C39.9004 7.37572 38.9098 9.04174 38.882 9.08738C38.519 9.68371 38.0817 10.2806 37.6526 10.8323C37.4402 11.1054 36.9387 11.5858 36.9387 11.5858C36.9387 11.5858 37.018 11.4801 37.0577 11.4272C37.406 10.9628 37.6299 10.4017 37.9698 9.9202C38.5624 9.08079 39.3867 8.19688 39.8338 7.30276" fill="none" opacity="1" stroke="#abcadf" stroke-linecap="round" stroke-linejoin="round" stroke-width="3" vectornator:layerName="Curve 6"/>
<path d="M41.1822 5.51814C41.1822 5.05608 41.8948 3.96963 42.3719 4.68532C42.9 5.47742 42.2577 6.85876 41.2218 6.62857C39.6043 6.26911 40.6096 3.58271 42.0546 3.69386C43.146 3.77781 44.0694 6.2154 42.8875 6.70789C39.7054 8.03373 39.0395 3.51981 41.9753 3.97147C44.2564 4.32241 43.2753 7.70172 41.1822 7.54071C39.4217 7.40529 40.1426 3.83163 41.6581 3.69386C43.0225 3.56982 43.8044 7.18185 42.2133 7.81832C40.4429 8.52646 38.8017 5.07437 40.6666 4.3284C42.8196 3.46721 44.699 7.47675 41.9357 7.93729C39.377 8.36374 39.4927 3.56582 41.4994 3.8525C44.1331 4.22874 43.4128 8.74116 41.1028 7.77866C38.1964 6.56765 40.7285 2.36771 42.7685 4.40771" fill="none" opacity="1" stroke="#abcadf" stroke-linecap="round" stroke-linejoin="round" stroke-width="3" vectornator:layerName="Curve 7"/>
<path d="M5.5809 6.38156C4.74607 6.54643 5.14307 4.88008 6.04357 5.12801C7.40689 5.50337 6.48166 7.60608 5.39134 7.71031C3.73994 7.86818 3.70792 5.07273 5.13754 4.79041C6.25371 4.56998 7.86156 6.3595 6.765 7.30991C5.18811 8.67663 3.24687 6.20562 4.58479 4.77044C6.01675 3.23437 8.17679 6.16602 6.91344 7.57114C5.33891 9.32236 2.83971 6.48845 4.45398 4.9254C6.5359 2.90954 9.13656 5.87773 7.22951 7.86383C5.90948 9.23857 4.31766 7.58064 3.94757 6.28444C3.82852 5.86745 4.08893 4.90064 4.55985 4.80764" fill="none" opacity="1" stroke="#abcadf" stroke-linecap="round" stroke-linejoin="round" stroke-width="3" vectornator:layerName="Curve 8"/>
</g>
</svg>
